<svg xmlns="http://www.w3.org/2000/svg" version="1.1" xmlns:xlink="http://www.w3.org/1999/xlink" xmlns:svgjs="http://svgjs.dev/svgjs" width="2000" height="1500" viewBox="0 0 2000 1500"><rect width="2000" height="1500" fill="#fafafa"></rect><g transform="matrix(0.75,0,0,0.75,249.090909090909,527.0588567799823)"><svg viewBox="0 0 396 118" data-background-color="#fafafa" preserveAspectRatio="xMidYMid meet" height="595" width="2000" xmlns="http://www.w3.org/2000/svg" xmlns:xlink="http://www.w3.org/1999/xlink"><defs></defs><g id="tight-bounds" transform="matrix(1,0,0,1,0.2400000000000091,-0.04861647067318131)"><svg viewBox="0 0 395.52 118.09722794959909" height="118.09722794959909" width="395.52"><g><svg viewBox="0 0 395.52 118.09722794959909" height="118.09722794959909" width="395.52"><g><svg viewBox="0 0 395.52 118.09722794959909" height="118.09722794959909" width="395.52"><g><svg viewBox="0 0 395.52 118.09722794959909" height="118.09722794959909" width="395.52"><g><svg viewBox="0 0 395.52 118.09722794959909" height="118.09722794959909" width="395.52"><g transform="matrix(1,0,0,1,0,0)"><svg width="395.52" viewBox="4.149999618530273 -35.5 130.95001220703125 36.099998474121094" height="118.09722794959909" data-palette-color="#130912"><svg></svg><g class="undefined-text-0" data-fill-palette-color="primary" id="text-0"><path d="M8.15 0h-4v-34.9h18.85v3.5h-14.85v12h13.5v3.5h-13.5zM46.65 0h-17.25v-34.9h4v31.4h13.25zM62.35 0.6v0c-4.233 0-7.517-1.45-9.85-4.35-2.333-2.9-3.5-7.467-3.5-13.7v0c0-6.233 1.167-10.8 3.5-13.7 2.333-2.9 5.617-4.35 9.85-4.35v0c4.233 0 7.517 1.45 9.85 4.35 2.333 2.9 3.5 7.467 3.5 13.7v0c0 6.233-1.167 10.8-3.5 13.7-2.333 2.9-5.617 4.35-9.85 4.35zM62.35-2.95v0c2.9 0 5.133-0.96 6.7-2.88 1.567-1.913 2.35-4.487 2.35-7.72v0-7.8c0-3.233-0.783-5.81-2.35-7.73-1.567-1.913-3.8-2.87-6.7-2.87v0c-2.9 0-5.133 0.957-6.7 2.87-1.567 1.92-2.35 4.497-2.35 7.73v0 7.8c0 3.233 0.783 5.807 2.35 7.72 1.567 1.92 3.8 2.88 6.7 2.88zM86.45-15v15h-4v-34.9h12.85c5.767 0 8.65 3.317 8.65 9.95v0c0 5.6-2.067 8.833-6.2 9.7v0l7.05 15.25h-4.5l-6.55-15zM86.45-18.4h8.75c2.967 0 4.45-1.6 4.45-4.8v0-3.4c0-3.2-1.483-4.8-4.45-4.8v0h-8.75zM135.1 0h-4.1l-3.1-10.45h-12.55l-3.1 10.45h-4l10.9-34.9h5zM127-13.75l-4.05-13.25-1.1-4.35h-0.5l-1.1 4.35-3.95 13.25z" data-fill-palette-color="primary" fill="#130912" opacity="1"></path></g></svg></g></svg></g></svg></g></svg></g></svg></g></svg><rect width="395.52" height="118.09722794959909" fill="none" stroke="none" visibility="hidden"></rect></g></svg></g></svg>